<svg width="145" height="38" viewBox="0 0 145 38" fill="none" xmlns="http://www.w3.org/2000/svg">
<g filter="url(#filter0_d_190_3900)">
<rect x="1" y="1" width="36.5714" height="36" rx="7.42857" fill="black"/>
<rect x="1.43333" y="1.43333" width="35.7048" height="35.1333" rx="6.99524" stroke="url(#paint0_linear_190_3900)" stroke-opacity="0.3" stroke-width="0.866667"/>
<path d="M14.1788 12.2729V11.1699H24.8213V12.2729H14.1788Z" fill="#77AFF0"/>
<path d="M14.1788 27.9549V19.4426H24.8213V20.5456H15.3904V27.9549H14.1788Z" fill="#77AFF0"/>
</g>
<path d="M50.3852 7.7373V8.84007H61.0268V7.7373H50.3852ZM83.7153 11.9088C82.5509 11.9088 81.5542 12.173 80.6988 12.6522C79.8434 13.156 79.2254 13.8501 78.7977 14.7132V12.0039H77.6578V24.5166H78.8449V17.8524C78.8449 16.3656 79.2481 15.1906 80.1035 14.3046C80.9344 13.4414 82.0761 12.9869 83.5477 12.9869C84.8063 12.9869 85.7804 13.3709 86.4927 14.0896C87.2049 14.833 87.561 15.9111 87.561 17.301V24.5166H88.7481V17.2059C88.7481 15.5042 88.2977 14.1848 87.3934 13.274C86.4909 12.3633 85.255 11.907 83.7118 11.907L83.7153 11.9088ZM97.8448 11.9088C96.8951 11.9088 95.9682 12.0761 95.1128 12.3879C94.2347 12.6997 93.498 13.1313 92.8801 13.6827L93.4736 14.5459C93.9956 14.0667 94.6135 13.6827 95.3746 13.3956C96.134 13.1084 96.9178 12.964 97.7505 12.964C98.9375 12.964 99.8645 13.2758 100.482 13.8747C101.1 14.4983 101.432 15.3844 101.432 16.5365V17.5424H97.1797C95.5649 17.5424 94.3761 17.8788 93.6412 18.5253C92.9045 19.1719 92.5484 20.0121 92.5484 21.0427C92.5484 22.0732 92.9289 22.984 93.7354 23.6322C94.5437 24.3034 95.6365 24.6152 97.0138 24.6152C98.0595 24.6152 98.9864 24.4232 99.7458 24.0163C100.505 23.6093 101.076 23.0333 101.479 22.2899V24.5201H102.619V16.5858C102.619 15.0515 102.191 13.9011 101.383 13.1102C100.552 12.3192 99.3635 11.9123 97.843 11.9123L97.8448 11.9088ZM113.594 11.9088C112.43 11.9088 111.433 12.173 110.578 12.6522C109.722 13.156 109.104 13.8501 108.677 14.7132V12.0039H107.537V24.5166H108.724V17.8524C108.724 16.3656 109.127 15.1906 109.982 14.3046C110.813 13.4414 111.953 12.9869 113.427 12.9869C114.685 12.9869 115.659 13.3709 116.373 14.0896C117.086 14.833 117.442 15.9111 117.442 17.301V24.5166H118.629V17.2059C118.629 15.5042 118.177 14.1848 117.274 13.274C116.372 12.3633 115.136 11.907 113.592 11.907L113.594 11.9088ZM128.507 11.9088C127.296 11.9088 126.228 12.1959 125.276 12.7244C124.327 13.2511 123.565 14.0192 123.044 14.9775C122.497 15.9358 122.235 17.0386 122.235 18.2611C122.235 19.4837 122.497 20.5864 123.044 21.5447C123.565 22.503 124.327 23.2711 125.276 23.7978C126.226 24.3492 127.296 24.6134 128.507 24.6134C129.506 24.6134 130.409 24.4214 131.215 24.0374C132.023 23.6534 132.688 23.0791 133.21 22.311L132.33 21.6645C131.878 22.2881 131.332 22.7673 130.667 23.0791C130.002 23.3909 129.29 23.5336 128.504 23.5336C127.53 23.5336 126.652 23.3187 125.891 22.8871C125.131 22.4555 124.513 21.8319 124.086 21.018C123.658 20.2271 123.445 19.3163 123.445 18.2611C123.445 17.2059 123.658 16.3198 124.086 15.5042C124.513 14.7132 125.131 14.0896 125.891 13.658C126.65 13.2265 127.53 12.9869 128.504 12.9869C129.288 12.9869 130 13.1542 130.667 13.466C131.332 13.7778 131.878 14.2323 132.33 14.8559L133.21 14.2094C132.688 13.466 132.023 12.8917 131.215 12.5077C130.407 12.1237 129.504 11.9088 128.507 11.9088ZM142.635 11.9088C141.471 11.9088 140.497 12.173 139.69 12.6522C138.882 13.1313 138.288 13.8272 137.908 14.7379V12.0057H136.768V24.5183H137.955V17.9986C137.955 16.4643 138.336 15.2417 139.119 14.3785C139.879 13.5154 140.972 13.0609 142.351 13.0609L142.635 13.0855V11.9105V11.9088ZM62.6852 12.0039L68.2678 24.469L67.6027 25.9787C67.2222 26.7943 66.8434 27.3686 66.4157 27.705C65.988 28.0415 65.466 28.2089 64.8708 28.2089C63.9683 28.2089 63.1845 27.8971 62.5665 27.2259L61.973 28.1366C62.3064 28.5207 62.7323 28.7831 63.2316 28.9752C63.7308 29.1672 64.2772 29.2623 64.8463 29.2623C65.7017 29.2623 66.4384 29.0474 67.0564 28.5665C67.6743 28.1102 68.2434 27.3193 68.72 26.2165L75.0864 12.0004H73.8749L68.9103 23.1954L63.9456 12.0004H62.6869L62.6852 12.0039ZM50.3852 16.008V24.5183H51.5967V17.1108H61.0268V16.008H50.3852ZM97.2058 18.476H101.434V20.826C101.053 21.7367 100.507 22.4326 99.7947 22.9117C99.0824 23.3909 98.2026 23.6305 97.1814 23.6305C96.0886 23.6305 95.2332 23.4138 94.6397 22.9346C94.0217 22.4555 93.7372 21.809 93.7372 20.9934C93.7372 20.2271 93.999 19.6034 94.5437 19.1472C95.0901 18.7156 95.9699 18.476 97.2041 18.476H97.2058Z" fill="#77AFF0"/>
<defs>
<filter id="filter0_d_190_3900" x="0.133333" y="0.133333" width="38.3047" height="37.7333" filterUnits="userSpaceOnUse" color-interpolation-filters="sRGB">
<feFlood flood-opacity="0" result="BackgroundImageFix"/>
<feColorMatrix in="SourceAlpha" type="matrix" values="0 0 0 0 0 0 0 0 0 0 0 0 0 0 0 0 0 0 127 0" result="hardAlpha"/>
<feMorphology radius="0.866667" operator="dilate" in="SourceAlpha" result="effect1_dropShadow_190_3900"/>
<feOffset/>
<feComposite in2="hardAlpha" operator="out"/>
<feColorMatrix type="matrix" values="0 0 0 0 0.466667 0 0 0 0 0.686275 0 0 0 0 0.941176 0 0 0 1 0"/>
<feBlend mode="normal" in2="BackgroundImageFix" result="effect1_dropShadow_190_3900"/>
<feBlend mode="normal" in="SourceGraphic" in2="effect1_dropShadow_190_3900" result="shape"/>
</filter>
<linearGradient id="paint0_linear_190_3900" x1="19.2857" y1="1" x2="19.2857" y2="37" gradientUnits="userSpaceOnUse">
<stop stop-color="white"/>
<stop offset="1" stop-color="white" stop-opacity="0"/>
</linearGradient>
</defs>
</svg>
